<?xml version="1.0" encoding="UTF-8"?>
<svg id="Layer_2" data-name="Layer 2" xmlns="http://www.w3.org/2000/svg" viewBox="0 0 195.55 195.56">
  <defs>
    <style>
      .cls-1 {
        fill: #fff;
        stroke-width: 0px;
      }
    </style>
  </defs>
  <g id="Layer_1-2" data-name="Layer 1">
    <path class="cls-1" d="M97.78,0C43.78,0,0,43.78,0,97.78s43.78,97.78,97.78,97.78,97.77-43.78,97.77-97.78S151.78,0,97.78,0ZM29.13,119.54l-13.34,7.7c-3.32-9.2-5.12-19.12-5.12-29.46s1.8-20.26,5.12-29.46l13.34,7.7c-2.18,6.86-3.35,14.18-3.35,21.76s1.17,14.9,3.35,21.76ZM82.3,12.04v15.41c-14.76,3.23-27.83,11-37.67,21.77l-13.35-7.71c12.81-15.13,30.69-25.82,51.02-29.47ZM82.3,183.52c-20.33-3.65-38.21-14.34-51.01-29.47l13.35-7.7c9.83,10.77,22.9,18.53,37.66,21.76v15.41ZM104,160.74h-12.44v-38.85c-4.45-1.15-8.42-3.5-11.54-6.68l-33.66,19.44-6.22-10.78,33.66-19.43c-.6-2.12-.91-4.35-.91-6.66s.31-4.54.91-6.66l-33.66-19.43,6.22-10.78,33.67,19.43c3.11-3.18,7.08-5.52,11.53-6.67v-38.85h12.44v38.85c4.45,1.15,8.42,3.49,11.53,6.67l33.67-19.43,6.22,10.78-33.66,19.43c.6,2.12.91,4.35.91,6.66s-.31,4.54-.91,6.66l33.66,19.43-6.22,10.78-33.66-19.44c-3.12,3.18-7.09,5.53-11.54,6.68v38.85ZM113.27,183.52v-15.41c14.76-3.23,27.83-11,37.66-21.77l13.35,7.71c-12.81,15.12-30.69,25.82-51.01,29.47ZM150.93,49.22c-9.83-10.77-22.9-18.53-37.66-21.77v-15.41c20.33,3.65,38.21,14.35,51.01,29.48l-13.35,7.7ZM166.43,119.54c2.18-6.86,3.35-14.18,3.35-21.76s-1.17-14.89-3.35-21.75l13.34-7.71c3.32,9.2,5.12,19.12,5.12,29.46s-1.8,20.26-5.12,29.46l-13.34-7.7Z"/>
  </g>
</svg>