<?xml version="1.0" encoding="UTF-8"?> <svg xmlns="http://www.w3.org/2000/svg" id="Layer_1" data-name="Layer 1" width="512" height="512" viewBox="0 0 512 512"><defs><style>.cls-1{fill:#6f4f38;}.cls-2{fill:#387d44;}</style></defs><path class="cls-1" d="M342.1465,0H169.8533a48.023,48.023,0,0,0-33.9579,14.0657l-121.83,121.83A48.0242,48.0242,0,0,0,0,169.8534V342.1466a48.0239,48.0239,0,0,0,14.0655,33.9579l121.83,121.83A48.0236,48.0236,0,0,0,169.8533,512H342.1466a48.0236,48.0236,0,0,0,33.9578-14.0655l121.83-121.83A48.0237,48.0237,0,0,0,512,342.1466V169.8534a48.0241,48.0241,0,0,0-14.0658-33.9579l-121.83-121.83A48.0226,48.0226,0,0,0,342.1465,0Z"></path><path class="cls-2" d="M331.8848,24.7741l-151.77,0A48.0246,48.0246,0,0,0,146.1571,38.84L38.84,146.1574a48.0238,48.0238,0,0,0-14.0658,33.9577v151.77A48.0246,48.0246,0,0,0,38.84,365.8428L146.1572,473.16a48.0246,48.0246,0,0,0,33.9579,14.066h151.77a48.0239,48.0239,0,0,0,33.9578-14.066L473.16,365.8428a48.0246,48.0246,0,0,0,14.0658-33.9579v-151.77A48.0238,48.0238,0,0,0,473.16,146.1574L365.8426,38.84A48.0238,48.0238,0,0,0,331.8848,24.7741Z"></path></svg> 